<svg height="2174" width="720" xmlns="http://www.w3.org/2000/svg">
<rect height="2174" fill="#555" width="720"></rect>
<text fill="#7f7" font-family="Courier New" font-size="12" xml:space="preserve">
<tspan x="10" y="26">12 megabytes installed</tspan>
<tspan x="10" y="42"></tspan>
<tspan x="10" y="58">node_modules</tspan>
<tspan x="10" y="74">├── ansi-html@0.0.7 </tspan>
<tspan x="10" y="90">├── async@0.9.2 </tspan>
<tspan x="10" y="106">├─┬ chalk@0.5.1 </tspan>
<tspan x="10" y="122">│ ├── ansi-styles@1.1.0 </tspan>
<tspan x="10" y="138">│ ├── escape-string-regexp@1.0.5 </tspan>
<tspan x="10" y="154">│ ├─┬ has-ansi@0.1.0 </tspan>
<tspan x="10" y="170">│ │ └── ansi-regex@0.2.1 </tspan>
<tspan x="10" y="186">│ ├── strip-ansi@0.3.0 </tspan>
<tspan x="10" y="202">│ └── supports-color@0.2.0 </tspan>
<tspan x="10" y="218">├─┬ chokidar@0.12.6 </tspan>
<tspan x="10" y="234">│ ├── async-each@0.1.6 </tspan>
<tspan x="10" y="250">│ └─┬ readdirp@1.3.0 </tspan>
<tspan x="10" y="266">│   ├── graceful-fs@2.0.3 </tspan>
<tspan x="10" y="282">│   ├─┬ minimatch@0.2.14 </tspan>
<tspan x="10" y="298">│   │ ├── lru-cache@2.7.3 </tspan>
<tspan x="10" y="314">│   │ └── sigmund@1.0.1 </tspan>
<tspan x="10" y="330">│   └─┬ readable-stream@1.0.34 </tspan>
<tspan x="10" y="346">│     ├── core-util-is@1.0.2 </tspan>
<tspan x="10" y="362">│     ├── inherits@2.0.3 </tspan>
<tspan x="10" y="378">│     └── string_decoder@0.10.31 </tspan>
<tspan x="10" y="394">├── commander@2.5.1 </tspan>
<tspan x="10" y="410">├─┬ express@4.10.8 </tspan>
<tspan x="10" y="426">│ ├─┬ accepts@1.1.4 </tspan>
<tspan x="10" y="442">│ │ ├─┬ mime-types@2.0.14 </tspan>
<tspan x="10" y="458">│ │ │ └── mime-db@1.12.0 </tspan>
<tspan x="10" y="474">│ │ └── negotiator@0.4.9 </tspan>
<tspan x="10" y="490">│ ├── content-disposition@0.5.0 </tspan>
<tspan x="10" y="506">│ ├── cookie@0.1.2 </tspan>
<tspan x="10" y="522">│ ├── cookie-signature@1.0.5 </tspan>
<tspan x="10" y="538">│ ├─┬ debug@2.1.3 </tspan>
<tspan x="10" y="554">│ │ └── ms@0.7.0 </tspan>
<tspan x="10" y="570">│ ├── depd@1.0.1 </tspan>
<tspan x="10" y="586">│ ├── escape-html@1.0.1 </tspan>
<tspan x="10" y="602">│ ├─┬ etag@1.5.1 </tspan>
<tspan x="10" y="618">│ │ └── crc@3.2.1 </tspan>
<tspan x="10" y="634">│ ├── finalhandler@0.3.3 </tspan>
<tspan x="10" y="650">│ ├── fresh@0.2.4 </tspan>
<tspan x="10" y="666">│ ├── media-typer@0.3.0 </tspan>
<tspan x="10" y="682">│ ├── merge-descriptors@0.0.2 </tspan>
<tspan x="10" y="698">│ ├── methods@1.1.1 </tspan>
<tspan x="10" y="714">│ ├─┬ on-finished@2.2.1 </tspan>
<tspan x="10" y="730">│ │ └── ee-first@1.1.0 </tspan>
<tspan x="10" y="746">│ ├── parseurl@1.3.1 </tspan>
<tspan x="10" y="762">│ ├── path-to-regexp@0.1.3 </tspan>
<tspan x="10" y="778">│ ├─┬ proxy-addr@1.0.10 </tspan>
<tspan x="10" y="794">│ │ ├── forwarded@0.1.0 </tspan>
<tspan x="10" y="810">│ │ └── ipaddr.js@1.0.5 </tspan>
<tspan x="10" y="826">│ ├── qs@2.3.3 </tspan>
<tspan x="10" y="842">│ ├── range-parser@1.0.3 </tspan>
<tspan x="10" y="858">│ ├─┬ send@0.10.1 </tspan>
<tspan x="10" y="874">│ │ ├── destroy@1.0.3 </tspan>
<tspan x="10" y="890">│ │ ├── mime@1.2.11 </tspan>
<tspan x="10" y="906">│ │ ├── ms@0.6.2 </tspan>
<tspan x="10" y="922">│ │ └── on-finished@2.1.1 </tspan>
<tspan x="10" y="938">│ ├── serve-static@1.7.2 </tspan>
<tspan x="10" y="954">│ ├── type-is@1.5.7 </tspan>
<tspan x="10" y="970">│ ├── utils-merge@1.0.0 </tspan>
<tspan x="10" y="986">│ └── vary@1.0.1 </tspan>
<tspan x="10" y="1002">├── lodash@2.4.2 </tspan>
<tspan x="10" y="1018">├─┬ nconf@0.6.9 </tspan>
<tspan x="10" y="1034">│ ├── async@0.2.9 </tspan>
<tspan x="10" y="1050">│ ├── ini@1.3.4 </tspan>
<tspan x="10" y="1066">│ └─┬ optimist@0.6.0 </tspan>
<tspan x="10" y="1082">│   ├── minimist@0.0.10 </tspan>
<tspan x="10" y="1098">│   └── wordwrap@0.0.3 </tspan>
<tspan x="10" y="1114">├─┬ nssocket@0.5.3 </tspan>
<tspan x="10" y="1130">│ ├── eventemitter2@0.4.14 </tspan>
<tspan x="10" y="1146">│ └── lazy@1.0.11 </tspan>
<tspan x="10" y="1162">├─┬ socket.io@1.2.1 </tspan>
<tspan x="10" y="1178">│ ├── debug@0.7.4 </tspan>
<tspan x="10" y="1194">│ ├─┬ engine.io@1.4.3 </tspan>
<tspan x="10" y="1210">│ │ ├── base64id@0.1.0 </tspan>
<tspan x="10" y="1226">│ │ ├─┬ debug@1.0.3 </tspan>
<tspan x="10" y="1242">│ │ │ └── ms@0.6.2 </tspan>
<tspan x="10" y="1258">│ │ ├─┬ engine.io-parser@1.1.0 </tspan>
<tspan x="10" y="1274">│ │ │ ├── after@0.8.1 </tspan>
<tspan x="10" y="1290">│ │ │ ├── arraybuffer.slice@0.0.6 </tspan>
<tspan x="10" y="1306">│ │ │ ├── base64-arraybuffer@0.1.2 </tspan>
<tspan x="10" y="1322">│ │ │ ├── blob@0.0.2 </tspan>
<tspan x="10" y="1338">│ │ │ └── utf8@2.0.0 </tspan>
<tspan x="10" y="1354">│ │ └─┬ ws@0.5.0 </tspan>
<tspan x="10" y="1370">│ │   ├── nan@1.4.3 </tspan>
<tspan x="10" y="1386">│ │   ├── options@0.0.6 </tspan>
<tspan x="10" y="1402">│ │   └── ultron@1.0.2 </tspan>
<tspan x="10" y="1418">│ ├─┬ has-binary-data@0.1.3 </tspan>
<tspan x="10" y="1434">│ │ └── isarray@0.0.1 </tspan>
<tspan x="10" y="1450">│ ├─┬ socket.io-adapter@0.3.1 </tspan>
<tspan x="10" y="1466">│ │ ├─┬ debug@1.0.2 </tspan>
<tspan x="10" y="1482">│ │ │ └── ms@0.6.2 </tspan>
<tspan x="10" y="1498">│ │ └── object-keys@1.0.1 </tspan>
<tspan x="10" y="1514">│ ├─┬ socket.io-client@1.2.1 </tspan>
<tspan x="10" y="1530">│ │ ├── component-bind@1.0.0 </tspan>
<tspan x="10" y="1546">│ │ ├── component-emitter@1.1.2 </tspan>
<tspan x="10" y="1562">│ │ ├── debug@0.7.4 </tspan>
<tspan x="10" y="1578">│ │ ├─┬ engine.io-client@1.4.3 </tspan>
<tspan x="10" y="1594">│ │ │ ├── component-inherit@0.0.3 </tspan>
<tspan x="10" y="1610">│ │ │ ├─┬ debug@1.0.4 </tspan>
<tspan x="10" y="1626">│ │ │ │ └── ms@0.6.2 </tspan>
<tspan x="10" y="1642">│ │ │ ├─┬ has-cors@1.0.3 </tspan>
<tspan x="10" y="1658">│ │ │ │ └── global@2.0.1 </tspan>
<tspan x="10" y="1674">│ │ │ ├── parsejson@0.0.1 </tspan>
<tspan x="10" y="1690">│ │ │ ├── parseqs@0.0.2 </tspan>
<tspan x="10" y="1706">│ │ │ ├── parseuri@0.0.4 </tspan>
<tspan x="10" y="1722">│ │ │ ├─┬ ws@0.4.31 </tspan>
<tspan x="10" y="1738">│ │ │ │ ├── commander@0.6.1 </tspan>
<tspan x="10" y="1754">│ │ │ │ ├── nan@0.3.2 </tspan>
<tspan x="10" y="1770">│ │ │ │ └── tinycolor@0.0.1 </tspan>
<tspan x="10" y="1786">│ │ │ └── xmlhttprequest@1.5.0 </tspan>
<tspan x="10" y="1802">│ │ ├── has-binary@0.1.5 </tspan>
<tspan x="10" y="1818">│ │ ├── indexof@0.0.1 </tspan>
<tspan x="10" y="1834">│ │ ├── object-component@0.0.3 </tspan>
<tspan x="10" y="1850">│ │ ├─┬ parseuri@0.0.2 </tspan>
<tspan x="10" y="1866">│ │ │ └─┬ better-assert@1.0.2 </tspan>
<tspan x="10" y="1882">│ │ │   └── callsite@1.0.0 </tspan>
<tspan x="10" y="1898">│ │ └── to-array@0.1.3 </tspan>
<tspan x="10" y="1914">│ └─┬ socket.io-parser@2.2.2 </tspan>
<tspan x="10" y="1930">│   ├── benchmark@1.0.0 </tspan>
<tspan x="10" y="1946">│   ├── debug@0.7.4 </tspan>
<tspan x="10" y="1962">│   └── json3@3.2.6 </tspan>
<tspan x="10" y="1978">├─┬ swig@1.4.2 </tspan>
<tspan x="10" y="1994">│ └─┬ uglify-js@2.4.24 </tspan>
<tspan x="10" y="2010">│   ├── async@0.2.10 </tspan>
<tspan x="10" y="2026">│   ├─┬ source-map@0.1.34 </tspan>
<tspan x="10" y="2042">│   │ └── amdefine@1.0.1 </tspan>
<tspan x="10" y="2058">│   ├── uglify-to-browserify@1.0.2 </tspan>
<tspan x="10" y="2074">│   └─┬ yargs@3.5.4 </tspan>
<tspan x="10" y="2090">│     ├── camelcase@1.2.1 </tspan>
<tspan x="10" y="2106">│     ├── decamelize@1.2.0 </tspan>
<tspan x="10" y="2122">│     ├── window-size@0.1.0 </tspan>
<tspan x="10" y="2138">│     └── wordwrap@0.0.2 </tspan>
<tspan x="10" y="2154">└── windows-cpu@0.1.4</tspan>
</text>
</svg>
